<?xml version="1.0" encoding="UTF-8"?>
<svg id="Layer_1" data-name="Layer 1" xmlns="http://www.w3.org/2000/svg" viewBox="0 0 200 200">
  <defs>
    <style>
      .cls-1, .cls-2 {
        fill: #154372;
      }

      .cls-3 {
        fill: #fff;
      }

      .cls-3, .cls-4, .cls-2 {
        stroke: #fff;
        stroke-miterlimit: 10;
      }

      .cls-4 {
        fill: #1e5295;
      }
    </style>
  </defs>
  <g>
    <g>
      <g>
        <path class="cls-1" d="m126.65,67.47H9.27c-3.19,0-5.66-2.76-5.37-5.94C6.9,28.79,34.44,3.14,67.96,3.14s61.06,25.65,64.05,58.39c.29,3.18-2.17,5.94-5.37,5.94Z"/>
        <path class="cls-1" d="m126.65,67.84H9.27c-1.63,0-3.14-.67-4.24-1.87-1.1-1.21-1.65-2.84-1.5-4.47,1.46-16,8.81-30.81,20.7-41.71C36.19,8.81,51.72,2.77,67.96,2.77s31.77,6.04,43.73,17.02c11.88,10.9,19.24,25.72,20.7,41.71.15,1.64-.4,3.27-1.5,4.47-1.1,1.21-2.61,1.87-4.24,1.87ZM67.96,3.52c-16.05,0-31.4,5.97-43.22,16.82C12.99,31.12,5.73,45.76,4.28,61.57c-.13,1.43.34,2.85,1.3,3.9.96,1.05,2.27,1.63,3.69,1.63h117.37c1.42,0,2.73-.58,3.69-1.63.96-1.05,1.43-2.47,1.3-3.9-1.45-15.81-8.71-30.45-20.46-41.23-11.82-10.85-27.17-16.82-43.22-16.82Z"/>
      </g>
      <g>
        <path class="cls-1" d="m67.96,73.12v117.34c0,3.2-2.76,5.67-5.95,5.38-32.73-3-58.37-30.54-58.37-64.05,0-33.52,25.64-61.05,58.37-64.05,3.19-.29,5.95,2.18,5.95,5.38Z"/>
        <path class="cls-1" d="m62.51,196.24c-.18,0-.36,0-.54-.02-15.99-1.47-30.8-8.82-41.71-20.7-10.97-11.96-17.01-27.48-17.01-43.72s6.04-31.76,17.01-43.72c10.9-11.88,25.71-19.24,41.71-20.7,1.64-.15,3.27.4,4.48,1.5,1.21,1.1,1.88,2.62,1.88,4.25v117.34c0,1.64-.67,3.15-1.88,4.25-1.08.98-2.49,1.52-3.95,1.52Zm0-128.15c-.16,0-.31,0-.47.02-15.81,1.45-30.45,8.72-41.22,20.46-10.84,11.82-16.81,27.17-16.81,43.21s5.97,31.4,16.81,43.21c10.77,11.75,25.41,19.01,41.22,20.46,1.43.13,2.85-.35,3.91-1.31,1.05-.96,1.63-2.27,1.63-3.7v-117.34c0-1.43-.58-2.74-1.63-3.7-.94-.86-2.17-1.33-3.44-1.33Z"/>
      </g>
      <g>
        <path class="cls-1" d="m73.56,132.53h117.44c3.17,0,5.62,2.74,5.34,5.9-2.98,32.76-30.52,58.42-64.06,58.42-33.53,0-61.08-25.67-64.06-58.42-.29-3.16,2.16-5.9,5.34-5.9Z"/>
        <path class="cls-1" d="m132.28,197.23c-16.25,0-31.78-6.05-43.74-17.03-11.89-10.91-19.23-25.73-20.69-41.74-.15-1.63.4-3.25,1.49-4.45,1.1-1.2,2.59-1.86,4.22-1.86h117.44c1.62,0,3.12.66,4.22,1.86s1.64,2.82,1.49,4.45c-1.46,16-8.8,30.83-20.69,41.74-11.96,10.98-27.49,17.03-43.74,17.03Zm-58.72-64.33c-1.41,0-2.71.57-3.66,1.62-.95,1.04-1.43,2.46-1.3,3.88,1.44,15.82,8.7,30.47,20.45,41.25,11.82,10.85,27.17,16.83,43.23,16.83s31.41-5.98,43.23-16.83c11.75-10.79,19.01-25.44,20.45-41.25.13-1.42-.34-2.83-1.3-3.88-.95-1.04-2.25-1.62-3.66-1.62h-117.44Z"/>
      </g>
      <g>
        <path class="cls-1" d="m131.96,126.9V9.52c0-3.19,2.75-5.65,5.93-5.36,32.74,2.99,58.39,30.53,58.39,64.05,0,33.52-25.65,61.06-58.39,64.05-3.18.29-5.93-2.17-5.93-5.36Z"/>
        <path class="cls-1" d="m137.39,132.66c-1.45,0-2.86-.54-3.94-1.52-1.21-1.1-1.87-2.61-1.87-4.24V9.52c0-1.63.66-3.14,1.87-4.24,1.21-1.1,2.84-1.64,4.47-1.5,16,1.46,30.81,8.81,41.72,20.7,10.97,11.96,17.02,27.49,17.02,43.73s-6.04,31.77-17.02,43.73c-10.91,11.88-25.72,19.24-41.72,20.7-.18.02-.36.02-.53.02Zm0-128.15c-1.27,0-2.5.47-3.43,1.32-1.05.96-1.63,2.27-1.63,3.69v117.38c0,1.42.58,2.73,1.63,3.69,1.05.96,2.47,1.43,3.9,1.3,15.81-1.45,30.45-8.71,41.23-20.46,10.85-11.82,16.82-27.17,16.82-43.22s-5.97-31.4-16.82-43.22c-10.78-11.75-25.42-19.01-41.23-20.46-.16-.01-.31-.02-.46-.02Z"/>
      </g>
    </g>
    <g>
      <circle class="cls-1" cx="100" cy="100" r="22.87"/>
      <path class="cls-1" d="m100,123.24c-12.82,0-23.24-10.43-23.24-23.24s10.43-23.24,23.24-23.24,23.24,10.43,23.24,23.24-10.43,23.24-23.24,23.24Zm0-45.74c-12.4,0-22.49,10.09-22.49,22.49s10.09,22.49,22.49,22.49,22.49-10.09,22.49-22.49-10.09-22.49-22.49-22.49Z"/>
    </g>
  </g>
  <g>
    <g>
      <g>
        <path class="cls-4" d="m124.94,70.36H18.58c-2.89,0-5.13-2.51-4.86-5.41,2.72-29.83,27.67-53.2,58.04-53.2s55.33,23.37,58.04,53.2c.26,2.9-1.97,5.41-4.86,5.41Z"/>
        <path class="cls-3" d="m124.94,70.71H18.58c-1.48,0-2.85-.61-3.85-1.71-1-1.1-1.49-2.59-1.36-4.08,1.33-14.58,7.99-28.07,18.76-38.01,10.84-10,24.91-15.5,39.63-15.5s28.79,5.51,39.63,15.5c10.77,9.94,17.43,23.44,18.76,38.01.14,1.49-.36,2.98-1.36,4.08-1,1.1-2.37,1.71-3.85,1.71ZM71.76,12.1c-14.54,0-28.45,5.44-39.16,15.32-10.64,9.82-17.23,23.16-18.54,37.56-.12,1.3.31,2.59,1.18,3.55.87.95,2.05,1.48,3.34,1.48h106.36c1.29,0,2.47-.53,3.34-1.48.87-.96,1.3-2.25,1.18-3.55-1.31-14.4-7.89-27.74-18.54-37.56-10.71-9.88-24.62-15.32-39.16-15.32Z"/>
      </g>
      <g>
        <path class="cls-4" d="m71.76,75.51v106.91c0,2.92-2.5,5.17-5.39,4.9-29.66-2.74-52.9-27.82-52.9-58.36,0-30.54,23.23-55.62,52.9-58.36,2.89-.27,5.39,1.99,5.39,4.9Z"/>
        <path class="cls-3" d="m66.82,187.69c-.16,0-.32,0-.49-.02-14.49-1.34-27.92-8.04-37.8-18.86-9.94-10.9-15.42-25.04-15.42-39.84s5.47-28.94,15.42-39.84c9.88-10.83,23.3-17.53,37.8-18.86,1.49-.14,2.97.36,4.07,1.37,1.1,1.01,1.7,2.39,1.7,3.88v106.91c0,1.5-.61,2.87-1.7,3.88-.98.9-2.26,1.39-3.58,1.39Zm0-116.76c-.14,0-.28,0-.42.02-14.32,1.32-27.59,7.94-37.35,18.64-9.82,10.77-15.23,24.75-15.23,39.37s5.41,28.6,15.23,39.37c9.76,10.7,23.03,17.32,37.35,18.64,1.3.12,2.58-.31,3.54-1.19.95-.87,1.48-2.07,1.48-3.37v-106.91c0-1.3-.52-2.49-1.48-3.37-.85-.78-1.97-1.21-3.11-1.21Z"/>
      </g>
      <g>
        <path class="cls-4" d="m76.83,129.64h106.42c2.88,0,5.1,2.5,4.83,5.38-2.7,29.85-27.66,53.23-58.05,53.23-30.39,0-55.35-23.38-58.05-53.23-.26-2.88,1.96-5.38,4.83-5.38Z"/>
        <path class="cls-3" d="m130.04,188.59c-14.72,0-28.8-5.51-39.64-15.51-10.77-9.94-17.43-23.45-18.75-38.03-.13-1.49.36-2.96,1.35-4.06.99-1.1,2.35-1.7,3.83-1.7h106.42c1.47,0,2.83.6,3.83,1.7.99,1.09,1.49,2.57,1.35,4.06-1.32,14.58-7.98,28.09-18.75,38.03-10.84,10-24.92,15.51-39.64,15.51Zm-53.21-58.61c-1.28,0-2.45.52-3.32,1.47-.86.95-1.29,2.24-1.17,3.53,1.3,14.41,7.88,27.76,18.53,37.58,10.71,9.89,24.62,15.33,39.17,15.33s28.46-5.44,39.17-15.33c10.64-9.83,17.23-23.17,18.53-37.58.12-1.29-.31-2.58-1.17-3.53-.86-.95-2.04-1.47-3.32-1.47h-106.42Z"/>
      </g>
      <g>
        <path class="cls-4" d="m129.75,124.51V17.56c0-2.91,2.5-5.15,5.38-4.89,29.67,2.73,52.91,27.82,52.91,58.36,0,30.54-23.24,55.63-52.91,58.36-2.88.26-5.38-1.98-5.38-4.89Z"/>
        <path class="cls-3" d="m134.67,129.76c-1.32,0-2.6-.49-3.57-1.39-1.09-1-1.7-2.38-1.7-3.87V17.56c0-1.49.6-2.86,1.7-3.87,1.09-1,2.57-1.5,4.06-1.36,14.5,1.33,27.93,8.03,37.81,18.86,9.94,10.9,15.42,25.05,15.42,39.85s-5.48,28.95-15.42,39.85c-9.88,10.83-23.31,17.53-37.81,18.86-.16.02-.32.02-.48.02Zm0-116.76c-1.15,0-2.26.43-3.1,1.2-.95.87-1.47,2.06-1.47,3.35v106.95c0,1.29.52,2.48,1.47,3.35.95.87,2.24,1.3,3.53,1.19,14.33-1.32,27.59-7.94,37.36-18.64,9.83-10.77,15.24-24.75,15.24-39.37s-5.41-28.61-15.24-39.37c-9.77-10.7-23.04-17.32-37.36-18.64-.14-.01-.28-.02-.42-.02Z"/>
      </g>
    </g>
    <g>
      <ellipse class="cls-2" cx="100.79" cy="100" rx="20.72" ry="20.84"/>
      <path class="cls-3" d="m100.79,121.18c-11.62,0-21.07-9.5-21.07-21.18s9.45-21.19,21.07-21.19,21.07,9.5,21.07,21.19-9.45,21.18-21.07,21.18Zm0-41.67c-11.24,0-20.38,9.19-20.38,20.49s9.14,20.49,20.38,20.49,20.38-9.19,20.38-20.49-9.14-20.49-20.38-20.49Z"/>
    </g>
  </g>
  <circle class="cls-1" cx="100.79" cy="100" r="23.31"/>
</svg>